AdventPro-thn_it.ufo
<glyph name="exclam" format="1">
  <advance width="118" height="962"/>
  <unicode hex="0021"/>
  <outline>
    <contour>
      <point x="189" y="692" type="line" smooth="yes"/>
      <point x="192" y="704"/>
      <point x="202" y="710"/>
      <point x="211" y="710" type="curve" smooth="yes"/>
      <point x="221" y="710"/>
      <point x="224" y="704"/>
      <point x="221" y="692" type="curve" smooth="yes"/>
      <point x="92" y="121" type="line"/>
      <point x="77" y="121" type="line"/>
    </contour>
    <contour>
      <point x="79" y="18" type="curve" smooth="yes"/>
      <point x="77" y="9"/>
      <point x="69" y="0"/>
      <point x="59" y="0" type="curve" smooth="yes"/>
      <point x="50" y="0"/>
      <point x="43" y="9"/>
      <point x="45" y="18" type="curve" smooth="yes"/>
      <point x="47" y="26"/>
      <point x="57" y="34"/>
      <point x="66" y="34" type="curve" smooth="yes"/>
      <point x="76" y="34"/>
      <point x="81" y="26"/>
    </contour>
  </outline>
</glyph>
<glyph name="numbersign" format="1">
  <advance width="609" height="962"/>
  <unicode hex="0023"/>
  <outline>
    <contour>
      <point x="442" y="244" type="line"/>
      <point x="630" y="244" type="line"/>
      <point x="626" y="227" type="line"/>
      <point x="435" y="227" type="line"/>
      <point x="334" y="0" type="line"/>
      <point x="316" y="0" type="line"/>
      <point x="416" y="227" type="line"/>
      <point x="225" y="227" type="line"/>
      <point x="124" y="0" type="line"/>
      <point x="106" y="0" type="line"/>
      <point x="206" y="227" type="line"/>
      <point x="77" y="227" type="line"/>
      <point x="81" y="244" type="line"/>
      <point x="214" y="244" type="line"/>
      <point x="290" y="415" type="line"/>
      <point x="118" y="415" type="line"/>
      <point x="121" y="432" type="line"/>
      <point x="300" y="432" type="line"/>
      <point x="418" y="700" type="line"/>
      <point x="437" y="700" type="line"/>
      <point x="319" y="432" type="line"/>
      <point x="508" y="432" type="line"/>
      <point x="628" y="700" type="line"/>
      <point x="647" y="700" type="line"/>
      <point x="526" y="432" type="line"/>
      <point x="670" y="432" type="line"/>
      <point x="666" y="415" type="line"/>
      <point x="520" y="415" type="line"/>
    </contour>
    <contour>
      <point x="424" y="244" type="line"/>
      <point x="500" y="415" type="line"/>
      <point x="309" y="415" type="line"/>
      <point x="232" y="244" type="line"/>
    </contour>
  </outline>
</glyph>
<glyph name="dollar" format="1">
  <advance width="525" height="962"/>
  <unicode hex="0024"/>
  <outline>
    <component base="S" xOffset="1.4561"/>
    <contour>
      <point x="242" y="-114" type="line"/>
      <point x="439" y="818" type="line"/>
      <point x="459" y="818" type="line"/>
      <point x="261" y="-114" type="line"/>
    </contour>
  </outline>
</glyph>
<glyph name="parenleft" format="1">
  <advance width="170" height="962"/>
  <unicode hex="0028"/>
  <outline>
    <contour>
      <point x="324" y="800" type="line"/>
      <point x="259" y="760"/>
      <point x="216" y="731"/>
      <point x="196" y="637" type="curve" smooth="yes"/>
      <point x="127" y="315"/>
      <point x="94" y="156"/>
      <point x="74" y="65" type="curve" smooth="yes"/>
      <point x="50" y="-50"/>
      <point x="109" y="-81"/>
      <point x="133" y="-102" type="curve"/>
      <point x="118" y="-120" type="line"/>
      <point x="55" y="-71"/>
      <point x="35" y="-31"/>
      <point x="56" y="69" type="curve" smooth="yes"/>
      <point x="175" y="627" type="line" smooth="yes"/>
      <point x="195" y="725"/>
      <point x="234" y="769"/>
      <point x="317" y="816" type="curve"/>
    </contour>
  </outline>
</glyph>
<glyph name="parenright" format="1">
  <advance width="172" height="962"/>
  <unicode hex="0029"/>
  <outline>
    <contour>
      <point x="200" y="816" type="line"/>
      <point x="264" y="769"/>
      <point x="284" y="724"/>
      <point x="263" y="627" type="curve" smooth="yes"/>
      <point x="144" y="69" type="line" smooth="yes"/>
      <point x="123" y="-30"/>
      <point x="86" y="-71"/>
      <point x="1" y="-120" type="curve"/>
      <point x="-7" y="-102" type="line"/>
      <point x="28" y="-80"/>
      <point x="100" y="-50"/>
      <point x="125" y="65" type="curve" smooth="yes"/>
      <point x="144" y="156"/>
      <point x="177" y="315"/>
      <point x="246" y="637" type="curve" smooth="yes"/>
      <point x="266" y="732"/>
      <point x="234" y="760"/>
      <point x="186" y="800" type="curve"/>
    </contour>
  </outline>
</glyph>
<glyph name="four" format="1">
  <advance width="465" height="962"/>
  <unicode hex="0034"/>
  <outline>
    <contour>
      <point x="345" y="0" type="line"/>
      <point x="429" y="394" type="line"/>
      <point x="99" y="394" type="line"/>
      <point x="336" y="700" type="line"/>
      <point x="356" y="700" type="line"/>
      <point x="136" y="412" type="line"/>
      <point x="432" y="412" type="line"/>
      <point x="494" y="700" type="line"/>
      <point x="513" y="700" type="line"/>
      <point x="452" y="412" type="line"/>
      <point x="525" y="412" type="line"/>
      <point x="516" y="394" type="line"/>
      <point x="448" y="394" type="line"/>
      <point x="364" y="0" type="line"/>
    </contour>
  </outline>
</glyph>
<glyph name="equal" format="1">
  <advance width="387" height="962"/>
  <unicode hex="003D"/>
  <outline>
    <contour>
      <point x="118" y="394" type="line"/>
      <point x="122" y="412" type="line"/>
      <point x="442" y="412" type="line"/>
      <point x="438" y="394" type="line"/>
    </contour>
    <contour>
      <point x="96" y="289" type="line"/>
      <point x="100" y="308" type="line"/>
      <point x="420" y="308" type="line"/>
      <point x="415" y="289" type="line"/>
    </contour>
  </outline>
</glyph>
<glyph name="question" format="1">
  <advance width="408" height="962"/>
  <unicode hex="003F"/>
  <outline>
    <contour>
      <point x="138" y="532" type="line"/>
      <point x="165" y="657"/>
      <point x="267" y="711"/>
      <point x="356" y="708" type="curve" smooth="yes"/>
      <point x="453" y="705"/>
      <point x="516" y="640"/>
      <point x="494" y="538" type="curve" smooth="yes"/>
      <point x="478" y="464"/>
      <point x="437" y="421"/>
      <point x="385" y="374" type="curve" smooth="yes"/>
      <point x="286" y="289"/>
      <point x="258" y="273"/>
      <point x="241" y="194" type="curve" smooth="yes"/>
      <point x="225" y="120" type="line"/>
      <point x="207" y="120" type="line"/>
      <point x="221" y="188" type="line" smooth="yes"/>
      <point x="244" y="296"/>
      <point x="293" y="309"/>
      <point x="382" y="394" type="curve" smooth="yes"/>
      <point x="445" y="454"/>
      <point x="464" y="487"/>
      <point x="476" y="541" type="curve" smooth="yes"/>
      <point x="493" y="622"/>
      <point x="452" y="691"/>
      <point x="348" y="691" type="curve" smooth="yes"/>
      <point x="272" y="691"/>
      <point x="181" y="642"/>
      <point x="157" y="532" type="curve"/>
    </contour>
    <contour>
      <point x="198" y="30" type="curve" smooth="yes"/>
      <point x="209" y="30"/>
      <point x="212" y="21"/>
      <point x="209" y="12" type="curve" smooth="yes"/>
      <point x="207" y="4"/>
      <point x="200" y="-4"/>
      <point x="191" y="-4" type="curve" smooth="yes"/>
      <point x="179" y="-4"/>
      <point x="175" y="5"/>
      <point x="177" y="14" type="curve" smooth="yes"/>
      <point x="179" y="22"/>
      <point x="187" y="30"/>
    </contour>
  </outline>
</glyph>
<glyph name="A" format="1">
  <advance width="544" height="962"/>
  <unicode hex="0041"/>
  <outline>
    <contour>
      <point x="526" y="0" type="line"/>
      <point x="505" y="0" type="line"/>
      <point x="466" y="281" type="line"/>
      <point x="200" y="281" type="line"/>
      <point x="42" y="0" type="line"/>
      <point x="20" y="0" type="line"/>
      <point x="415" y="700" type="line"/>
      <point x="429" y="700" type="line"/>
    </contour>
    <contour>
      <point x="212" y="300" type="line"/>
      <point x="464" y="300" type="line"/>
      <point x="414" y="658" type="line"/>
    </contour>
  </outline>
</glyph>
<glyph name="D" format="1">
  <advance width="496" height="962"/>
  <unicode hex="0044"/>
  <outline>
    <contour>
      <point x="379" y="700" type="line" smooth="yes"/>
      <point x="530" y="700"/>
      <point x="591" y="611"/>
      <point x="562" y="475" type="curve" smooth="yes"/>
      <point x="504" y="200" type="line" smooth="yes"/>
      <point x="476" y="67"/>
      <point x="392" y="0"/>
      <point x="250" y="0" type="curve" smooth="yes"/>
      <point x="39" y="0" type="line"/>
      <point x="188" y="700" type="line"/>
    </contour>
    <contour>
      <point x="244" y="20" type="line" smooth="yes"/>
      <point x="372" y="20"/>
      <point x="456" y="63"/>
      <point x="488" y="214" type="curve" smooth="yes"/>
      <point x="542" y="468" type="line" smooth="yes"/>
      <point x="569" y="594"/>
      <point x="520" y="680"/>
      <point x="384" y="680" type="curve" smooth="yes"/>
      <point x="205" y="680" type="line"/>
      <point x="65" y="20" type="line"/>
    </contour>
  </outline>
</glyph>
<glyph name="G" format="1">
  <advance width="477" height="962"/>
  <unicode hex="0047"/>
  <outline>
    <contour>
      <point x="503.086" y="658.84" type="line"/>
      <point x="465.659" y="680.901"/>
      <point x="416.648" y="690.929"/>
      <point x="377.539" y="690.929" type="curve" smooth="yes"/>
      <point x="252.189" y="690.929"/>
      <point x="184.266" y="616.722"/>
      <point x="158.682" y="496.386" type="curve" smooth="yes"/>
      <point x="92.8036" y="186.521" type="line" smooth="yes"/>
      <point x="68.2856" y="71.1988"/>
      <point x="111.224" y="9.0252"/>
      <point x="240.585" y="9.0252" type="curve" smooth="yes"/>
      <point x="351.896" y="9.0252"/>
      <point x="441.114" y="70.196"/>
      <point x="464.992" y="182.51" type="curve" smooth="yes"/>
      <point x="485.886" y="280.784" type="line"/>
      <point x="310.396" y="280.784" type="line"/>
      <point x="306.424" y="299.837" type="line"/>
      <point x="508.99" y="299.837" type="line"/>
      <point x="445.243" y="0" type="line"/>
      <point x="426.19" y="0" type="line"/>
      <point x="445.804" y="92.2576" type="line"/>
      <point x="401.862" y="27.0756"/>
      <point x="321.772" y="-10.028"/>
      <point x="233.526" y="-10.028" type="curve" smooth="yes"/>
      <point x="101.156" y="-10.028"/>
      <point x="45.458" y="58.1624"/>
      <point x="73.174" y="188.526" type="curve" smooth="yes"/>
      <point x="140.119" y="503.406" type="line" smooth="yes"/>
      <point x="167.408" y="631.764"/>
      <point x="252.015" y="708.98"/>
      <point x="378.368" y="708.98" type="curve" smooth="yes"/>
      <point x="430.514" y="708.98"/>
      <point x="476.303" y="697.949"/>
      <point x="513.73" y="675.887" type="curve"/>
    </contour>
  </outline>
</glyph>
<glyph name="I" format="1">
  <advance width="163" height="962"/>
  <unicode hex="0049"/>
  <outline>
    <contour>
      <point x="160" y="681" type="line"/>
      <point x="164" y="700" type="line"/>
      <point x="268" y="700" type="line"/>
      <point x="120" y="0" type="line"/>
      <point x="102" y="0" type="line"/>
      <point x="245" y="678" type="line"/>
    </contour>
  </outline>
</glyph>
<glyph name="J" format="1">
  <advance width="178" height="962"/>
  <unicode hex="004A"/>
  <outline>
    <contour>
      <point x="163" y="123" type="line" smooth="yes"/>
      <point x="146" y="40"/>
      <point x="114" y="-22"/>
      <point x="24" y="-37" type="curve"/>
      <point x="22" y="-19" type="line"/>
      <point x="84" y="-10"/>
      <point x="126" y="36"/>
      <point x="144" y="119" type="curve" smooth="yes"/>
      <point x="263" y="681" type="line"/>
      <point x="179" y="684" type="line"/>
      <point x="182" y="700" type="line"/>
      <point x="286" y="700" type="line"/>
    </contour>
  </outline>
</glyph>
<glyph name="L" format="1">
  <advance width="420" height="962"/>
  <unicode hex="004C"/>
  <outline>
    <contour>
      <point x="41.1148" y="0" type="line"/>
      <point x="189.928" y="699.954" type="line"/>
      <point x="208.982" y="699.954" type="line"/>
      <point x="64.432" y="20.056" type="line"/>
      <point x="406.387" y="20.056" type="line"/>
      <point x="402.123" y="0" type="line"/>
    </contour>
  </outline>
</glyph>
<glyph name="M" format="1">
  <advance width="621" height="962"/>
  <unicode hex="004D"/>
  <outline>
    <contour>
      <point x="208" y="700" type="line"/>
      <point x="314" y="35" type="line"/>
      <point x="706" y="700" type="line"/>
      <point x="727" y="700" type="line"/>
      <point x="578" y="0" type="line"/>
      <point x="559" y="0" type="line"/>
      <point x="695" y="644" type="line"/>
      <point x="317" y="0" type="line"/>
      <point x="299" y="0" type="line"/>
      <point x="197" y="648" type="line"/>
      <point x="59" y="0" type="line"/>
      <point x="39" y="0" type="line"/>
      <point x="188" y="700" type="line"/>
    </contour>
  </outline>
</glyph>
<glyph name="N" format="1">
  <advance width="577" height="962"/>
  <unicode hex="004E"/>
  <outline>
    <contour>
      <point x="682.303" y="699.954" type="line"/>
      <point x="533.49" y="0" type="line"/>
      <point x="516.442" y="0" type="line"/>
      <point x="202.736" y="665.859" type="line"/>
      <point x="61.1708" y="0" type="line"/>
      <point x="41.1148" y="0" type="line"/>
      <point x="189.928" y="699.954" type="line"/>
      <point x="207.979" y="699.954" type="line"/>
      <point x="522.112" y="36.1008" type="line"/>
      <point x="663.25" y="699.954" type="line"/>
    </contour>
  </outline>
</glyph>
<glyph name="P" format="1">
  <advance width="504" height="962"/>
  <unicode hex="0050"/>
  <outline>
    <contour>
      <point x="430" y="700" type="line" smooth="yes"/>
      <point x="557" y="700"/>
      <point x="608" y="623"/>
      <point x="580" y="494" type="curve" smooth="yes"/>
      <point x="551" y="355"/>
      <point x="479" y="281"/>
      <point x="344" y="281" type="curve" smooth="yes"/>
      <point x="120" y="281" type="line"/>
      <point x="60" y="0" type="line"/>
      <point x="41" y="0" type="line"/>
      <point x="190" y="700" type="line"/>
    </contour>
    <contour>
      <point x="124" y="300" type="line"/>
      <point x="347" y="300" type="line" smooth="yes"/>
      <point x="469" y="300"/>
      <point x="535" y="368"/>
      <point x="561" y="494" type="curve" smooth="yes"/>
      <point x="586" y="611"/>
      <point x="543" y="680"/>
      <point x="426" y="680" type="curve" smooth="yes"/>
      <point x="205" y="680" type="line"/>
    </contour>
  </outline>
</glyph>
<glyph name="R" format="1">
  <advance width="509" height="962"/>
  <unicode hex="0052"/>
  <outline>
    <contour>
      <point x="439.626" y="699.954" type="line" smooth="yes"/>
      <point x="566.981" y="699.954"/>
      <point x="607.724" y="622.739"/>
      <point x="580.222" y="493.378" type="curve" smooth="yes"/>
      <point x="555.277" y="376.05"/>
      <point x="499.025" y="304.851"/>
      <point x="399.708" y="285.798" type="curve"/>
      <point x="475.327" y="0" type="line"/>
      <point x="455.271" y="0" type="line"/>
      <point x="380.229" y="283.792" type="line"/>
      <point x="367.982" y="282.79"/>
      <point x="355.522" y="280.784"/>
      <point x="343.488" y="280.784" type="curve" smooth="yes"/>
      <point x="119.864" y="280.784" type="line"/>
      <point x="60.168" y="0" type="line"/>
      <point x="41.1148" y="0" type="line"/>
      <point x="189.928" y="699.954" type="line"/>
    </contour>
    <contour>
      <point x="346.536" y="299.837" type="line" smooth="yes"/>
      <point x="468.878" y="299.837"/>
      <point x="534.518" y="368.028"/>
      <point x="561.168" y="493.378" type="curve" smooth="yes"/>
      <point x="586.326" y="611.708"/>
      <point x="552.689" y="679.898"/>
      <point x="436.364" y="679.898" type="curve" smooth="yes"/>
      <point x="204.718" y="679.898" type="line"/>
      <point x="123.915" y="299.837" type="line"/>
    </contour>
  </outline>
</glyph>
<glyph name="S" format="1">
  <advance width="525" height="962"/>
  <unicode hex="0053"/>
  <outline>
    <contour>
      <point x="566.989" y="652.823" type="line"/>
      <point x="530.628" y="679.898"/>
      <point x="474.234" y="692.935"/>
      <point x="425.097" y="692.935" type="curve" smooth="yes"/>
      <point x="337.853" y="692.935"/>
      <point x="216.648" y="655.831"/>
      <point x="194.476" y="551.54" type="curve" smooth="yes"/>
      <point x="151.409" y="348.974"/>
      <point x="583.158" y="408.14"/>
      <point x="533.27" y="173.484" type="curve" smooth="yes"/>
      <point x="504.701" y="39.1092"/>
      <point x="371.486" y="-12.0336"/>
      <point x="255.161" y="-12.0336" type="curve" smooth="yes"/>
      <point x="165.912" y="-12.0336"/>
      <point x="78.108" y="23.0644"/>
      <point x="42.1656" y="99.2772" type="curve"/>
      <point x="57.334" y="109.305" type="line"/>
      <point x="95.7716" y="40.112"/>
      <point x="173.974" y="7.0196"/>
      <point x="259.212" y="7.0196" type="curve" smooth="yes"/>
      <point x="362.5" y="7.0196"/>
      <point x="488.206" y="51.1428"/>
      <point x="514.003" y="172.482" type="curve" smooth="yes"/>
      <point x="561.12" y="394.1"/>
      <point x="127.516" y="330.924"/>
      <point x="174.633" y="552.543" type="curve" smooth="yes"/>
      <point x="199.79" y="670.873"/>
      <point x="329.444" y="709.982"/>
      <point x="427.718" y="709.982" type="curve" smooth="yes"/>
      <point x="482.872" y="709.982"/>
      <point x="535.255" y="696.946"/>
      <point x="578.059" y="671.876" type="curve"/>
    </contour>
  </outline>
</glyph>
<glyph name="V" format="1">
  <advance width="508" height="962"/>
  <unicode hex="0056"/>
  <outline>
    <contour>
      <point x="162" y="700" type="line"/>
      <point x="181" y="700" type="line"/>
      <point x="259" y="26" type="line"/>
      <point x="621" y="700" type="line"/>
      <point x="641" y="700" type="line"/>
      <point x="265" y="0" type="line"/>
      <point x="243" y="0" type="line"/>
    </contour>
  </outline>
</glyph>
<glyph name="W" format="1">
  <advance width="729" height="962"/>
  <unicode hex="0057"/>
  <outline>
    <contour>
      <point x="526" y="700" type="line"/>
      <point x="526" y="35" type="line"/>
      <point x="838" y="700" type="line"/>
      <point x="860" y="700" type="line"/>
      <point x="531" y="0" type="line"/>
      <point x="506" y="0" type="line"/>
      <point x="507" y="657" type="line"/>
      <point x="219" y="0" type="line"/>
      <point x="198" y="0" type="line"/>
      <point x="164" y="700" type="line"/>
      <point x="185" y="700" type="line"/>
      <point x="216" y="42" type="line"/>
      <point x="502" y="700" type="line"/>
    </contour>
  </outline>
</glyph>
<glyph name="b" format="1">
  <advance width="456" height="962"/>
  <unicode hex="0062"/>
  <outline>
    <contour>
      <point x="161" y="472" type="line"/>
      <point x="216" y="494"/>
      <point x="283" y="510"/>
      <point x="356" y="510" type="curve" smooth="yes"/>
      <point x="491" y="510"/>
      <point x="517" y="422"/>
      <point x="503" y="359" type="curve" smooth="yes"/>
      <point x="462" y="169" type="line" smooth="yes"/>
      <point x="436" y="50"/>
      <point x="367" y="-11"/>
      <point x="218" y="-11" type="curve" smooth="yes"/>
      <point x="181" y="-11"/>
      <point x="38" y="-1"/>
      <point x="41" y="-1" type="curve"/>
      <point x="190" y="700" type="line"/>
      <point x="209" y="700" type="line"/>
    </contour>
    <contour>
      <point x="64" y="17" type="line"/>
      <point x="72" y="16"/>
      <point x="178" y="8"/>
      <point x="222" y="7" type="curve" smooth="yes"/>
      <point x="379" y="5"/>
      <point x="425" y="90"/>
      <point x="441" y="162" type="curve" smooth="yes"/>
      <point x="483" y="355" type="line" smooth="yes"/>
      <point x="500" y="431"/>
      <point x="458" y="493"/>
      <point x="354" y="493" type="curve" smooth="yes"/>
      <point x="280" y="493"/>
      <point x="215" y="476"/>
      <point x="156" y="452" type="curve"/>
    </contour>
  </outline>
</glyph>
<glyph name="o" format="1">
  <advance width="427" height="962"/>
  <unicode hex="006F"/>
  <outline>
    <contour>
      <point x="436" y="185" type="line" smooth="yes"/>
      <point x="412" y="69"/>
      <point x="335" y="-10"/>
      <point x="213" y="-10" type="curve" smooth="yes"/>
      <point x="84" y="-10"/>
      <point x="44" y="77"/>
      <point x="66" y="185" type="curve" smooth="yes"/>
      <point x="95" y="316" type="line" smooth="yes"/>
      <point x="122" y="443"/>
      <point x="204" y="512"/>
      <point x="324" y="512" type="curve" smooth="yes"/>
      <point x="442" y="512"/>
      <point x="490" y="438"/>
      <point x="465" y="316" type="curve" smooth="yes"/>
    </contour>
    <contour>
      <point x="446" y="320" type="line" smooth="yes"/>
      <point x="471" y="435"/>
      <point x="418" y="494"/>
      <point x="323" y="494" type="curve" smooth="yes"/>
      <point x="210" y="494"/>
      <point x="138" y="427"/>
      <point x="116" y="320" type="curve" smooth="yes"/>
      <point x="86" y="185" type="line" smooth="yes"/>
      <point x="66" y="86"/>
      <point x="99" y="8"/>
      <point x="212" y="8" type="curve" smooth="yes"/>
      <point x="327" y="8"/>
      <point x="396" y="84"/>
      <point x="417" y="185" type="curve" smooth="yes"/>
    </contour>
  </outline>
</glyph>
<glyph name="copyright" format="1">
  <advance width="695" height="962"/>
  <unicode hex="00A9"/>
  <outline>
    <contour>
      <point x="704" y="192" type="line" smooth="yes"/>
      <point x="668" y="21"/>
      <point x="517" y="-68"/>
      <point x="332" y="-68" type="curve" smooth="yes"/>
      <point x="149" y="-68"/>
      <point x="35" y="20"/>
      <point x="71" y="192" type="curve" smooth="yes"/>
      <point x="99" y="320" type="line" smooth="yes"/>
      <point x="135" y="491"/>
      <point x="286" y="581"/>
      <point x="470" y="581" type="curve" smooth="yes"/>
      <point x="654" y="581"/>
      <point x="767" y="492"/>
      <point x="731" y="320" type="curve" smooth="yes"/>
    </contour>
    <contour>
      <point x="713" y="317" type="line" smooth="yes"/>
      <point x="748" y="480"/>
      <point x="644" y="563"/>
      <point x="470" y="563" type="curve" smooth="yes"/>
      <point x="296" y="563"/>
      <point x="151" y="480"/>
      <point x="117" y="317" type="curve" smooth="yes"/>
      <point x="91" y="195" type="line" smooth="yes"/>
      <point x="56" y="30"/>
      <point x="158" y="-52"/>
      <point x="334" y="-52" type="curve" smooth="yes"/>
      <point x="509" y="-52"/>
      <point x="653" y="33"/>
      <point x="687" y="195" type="curve" smooth="yes"/>
    </contour>
    <contour>
      <point x="581" y="405" type="line"/>
      <point x="540" y="427"/>
      <point x="496" y="436"/>
      <point x="456" y="436" type="curve" smooth="yes"/>
      <point x="341" y="436"/>
      <point x="264" y="366"/>
      <point x="241" y="255" type="curve" smooth="yes"/>
      <point x="215" y="134"/>
      <point x="258" y="75"/>
      <point x="378" y="75" type="curve" smooth="yes"/>
      <point x="415" y="75"/>
      <point x="482" y="82"/>
      <point x="541" y="108" type="curve"/>
      <point x="546" y="91" type="line"/>
      <point x="485" y="69"/>
      <point x="429" y="58"/>
      <point x="377" y="58" type="curve" smooth="yes"/>
      <point x="250" y="58"/>
      <point x="190" y="116"/>
      <point x="219" y="250" type="curve" smooth="yes"/>
      <point x="246" y="376"/>
      <point x="326" y="455"/>
      <point x="456" y="455" type="curve" smooth="yes"/>
      <point x="511" y="455"/>
      <point x="555" y="444"/>
      <point x="591" y="421" type="curve"/>
    </contour>
  </outline>
</glyph>
<glyph name="questiondown" format="1">
  <advance width="412" height="962"/>
  <unicode hex="00BF"/>
  <outline>
    <contour>
      <point x="417" y="163" type="line"/>
      <point x="390" y="40"/>
      <point x="293" y="-15"/>
      <point x="206" y="-14" type="curve" smooth="yes"/>
      <point x="107" y="-14"/>
      <point x="39" y="51"/>
      <point x="61" y="157" type="curve" smooth="yes"/>
      <point x="77" y="230"/>
      <point x="117" y="275"/>
      <point x="170" y="320" type="curve" smooth="yes"/>
      <point x="270" y="407"/>
      <point x="296" y="421"/>
      <point x="313" y="501" type="curve" smooth="yes"/>
      <point x="329" y="575" type="line"/>
      <point x="348" y="575" type="line"/>
      <point x="334" y="507" type="line" smooth="yes"/>
      <point x="311" y="399"/>
      <point x="262" y="381"/>
      <point x="172" y="300" type="curve" smooth="yes"/>
      <point x="115" y="247"/>
      <point x="91" y="211"/>
      <point x="79" y="158" type="curve" smooth="yes"/>
      <point x="61" y="77"/>
      <point x="110" y="3"/>
      <point x="205" y="3" type="curve" smooth="yes"/>
      <point x="284" y="3"/>
      <point x="374" y="54"/>
      <point x="397" y="163" type="curve"/>
    </contour>
    <contour>
      <point x="364" y="697" type="curve" smooth="yes"/>
      <point x="375" y="697"/>
      <point x="380" y="692"/>
      <point x="378" y="681" type="curve" smooth="yes"/>
      <point x="376" y="672"/>
      <point x="368" y="664"/>
      <point x="357" y="664" type="curve" smooth="yes"/>
      <point x="348" y="664"/>
      <point x="342" y="672"/>
      <point x="344" y="681" type="curve" smooth="yes"/>
      <point x="346" y="692"/>
      <point x="355" y="697"/>
    </contour>
  </outline>
</glyph>
<glyph name="multiply" format="1">
  <advance width="323" height="962"/>
  <unicode hex="00D7"/>
  <outline>
    <contour>
      <point x="235" y="344" type="line"/>
      <point x="380" y="485" type="line"/>
      <point x="391" y="472" type="line"/>
      <point x="245" y="331" type="line"/>
      <point x="330" y="194" type="line"/>
      <point x="310" y="180" type="line"/>
      <point x="228" y="316" type="line"/>
      <point x="85" y="180" type="line"/>
      <point x="74" y="191" type="line"/>
      <point x="219" y="330" type="line"/>
      <point x="132" y="474" type="line"/>
      <point x="148" y="486" type="line"/>
    </contour>
  </outline>
</glyph>
<glyph name="eth" format="1">
  <advance width="419" height="962"/>
  <unicode hex="00F0"/>
  <outline>
    <contour>
      <point x="328" y="688" type="curve"/>
      <point x="334" y="701" type="line"/>
      <point x="398" y="693"/>
      <point x="444" y="667"/>
      <point x="472" y="624" type="curve" smooth="yes"/>
      <point x="499" y="582"/>
      <point x="506" y="531"/>
      <point x="493" y="471" type="curve" smooth="yes"/>
      <point x="433" y="188" type="line" smooth="yes"/>
      <point x="406" y="61"/>
      <point x="324" y="-9"/>
      <point x="205" y="-9" type="curve" smooth="yes"/>
      <point x="86" y="-9"/>
      <point x="37" y="66"/>
      <point x="63" y="188" type="curve" smooth="yes"/>
      <point x="75" y="246" type="line" smooth="yes"/>
      <point x="102" y="369"/>
      <point x="180" y="434"/>
      <point x="291" y="434" type="curve" smooth="yes"/>
      <point x="352" y="434"/>
      <point x="436" y="398"/>
      <point x="445" y="340" type="curve"/>
      <point x="473" y="471" type="line" smooth="yes"/>
      <point x="508" y="633"/>
      <point x="390" y="678"/>
    </contour>
    <contour>
      <point x="97" y="252" type="curve" smooth="yes"/>
      <point x="82" y="183" type="line" smooth="yes"/>
      <point x="58" y="69"/>
      <point x="108" y="11"/>
      <point x="209" y="11" type="curve" smooth="yes"/>
      <point x="320" y="11"/>
      <point x="389" y="76"/>
      <point x="412" y="183" type="curve" smooth="yes"/>
      <point x="431" y="274" type="line"/>
      <point x="455" y="371"/>
      <point x="358" y="423"/>
      <point x="271" y="417" type="curve" smooth="yes"/>
      <point x="183" y="412"/>
      <point x="119" y="354"/>
    </contour>
    <contour>
      <point x="519" y="690" type="line"/>
      <point x="309" y="514" type="line"/>
      <point x="298" y="526" type="line"/>
      <point x="509" y="702" type="line"/>
    </contour>
  </outline>
</glyph>
<glyph name="eng" format="1">
  <advance width="443" height="962"/>
  <unicode hex="014B"/>
  <outline>
    <contour>
      <point x="394" y="-61" type="line" smooth="yes"/>
      <point x="376" y="-147"/>
      <point x="335" y="-183"/>
      <point x="255" y="-209" type="curve"/>
      <point x="253" y="-191" type="line"/>
      <point x="325" y="-165"/>
      <point x="357" y="-142"/>
      <point x="374" y="-61" type="curve" smooth="yes"/>
      <point x="461" y="347" type="line" smooth="yes"/>
      <point x="485" y="461"/>
      <point x="431" y="501"/>
      <point x="322" y="495" type="curve" smooth="yes"/>
      <point x="261" y="492"/>
      <point x="195" y="473"/>
      <point x="154" y="455" type="curve"/>
      <point x="57" y="0" type="line"/>
      <point x="38" y="0" type="line"/>
      <point x="145" y="500" type="line"/>
      <point x="164" y="500" type="line"/>
      <point x="158" y="473" type="line"/>
      <point x="205" y="492"/>
      <point x="260" y="507"/>
      <point x="312" y="510" type="curve" smooth="yes"/>
      <point x="400" y="515"/>
      <point x="515" y="503"/>
      <point x="481" y="346" type="curve" smooth="yes"/>
    </contour>
  </outline>
</glyph>
<glyph name="Tbar" format="1">
  <advance width="409" height="962"/>
  <unicode hex="0166"/>
  <outline>
    <component base="T"/>
    <contour>
      <point x="84" y="379" type="line"/>
      <point x="485" y="379" type="line"/>
      <point x="481" y="360" type="line"/>
      <point x="80" y="360" type="line"/>
    </contour>
  </outline>
</glyph>
<glyph name="dotlessj" format="1">
  <advance width="170" height="962"/>
  <unicode hex="0237"/>
  <outline>
    <contour>
      <point x="115.873" y="-68.1904" type="line" smooth="yes"/>
      <point x="98.6121" y="-149.417"/>
      <point x="59.791" y="-190.532"/>
      <point x="-21.3231" y="-213.596" type="curve"/>
      <point x="-23.7172" y="-196.549" type="line"/>
      <point x="49.011" y="-170.476"/>
      <point x="82.63" y="-144.403"/>
      <point x="99.0387" y="-67.1876" type="curve" smooth="yes"/>
      <point x="215.817" y="482.347" type="line"/>
      <point x="130.58" y="482.347" type="line"/>
      <point x="134.415" y="500.397" type="line"/>
      <point x="236.701" y="500.397" type="line"/>
    </contour>
  </outline>
</glyph>
<glyph name="acutecomb" format="1">
  <advance width="267" height="962"/>
  <unicode hex="0301"/>
  <outline>
    <contour>
      <point x="345" y="686" type="curve" smooth="yes"/>
      <point x="267" y="586" type="line"/>
      <point x="247" y="586" type="line"/>
      <point x="323" y="701" type="line" smooth="yes"/>
      <point x="329" y="710"/>
      <point x="339" y="714"/>
      <point x="346" y="710" type="curve" smooth="yes"/>
      <point x="354" y="705"/>
      <point x="352" y="694"/>
    </contour>
  </outline>
</glyph>
<glyph name="circumflexcomb" format="1">
  <advance width="267" height="962"/>
  <unicode hex="0302"/>
  <outline>
    <contour>
      <point x="384" y="612" type="line"/>
      <point x="367" y="600" type="line"/>
      <point x="283" y="703" type="line"/>
      <point x="152" y="598" type="line"/>
      <point x="141" y="612" type="line"/>
      <point x="289" y="731" type="line"/>
    </contour>
  </outline>
</glyph>
<glyph name="Chi" format="1">
  <advance width="559" height="962"/>
  <unicode hex="03A7"/>
  <outline>
    <contour>
      <point x="360" y="382" type="line"/>
      <point x="641" y="700" type="line"/>
      <point x="669" y="700" type="line"/>
      <point x="370" y="361" type="line"/>
      <point x="536" y="0" type="line"/>
      <point x="511" y="0" type="line"/>
      <point x="355" y="342" type="line"/>
      <point x="53" y="0" type="line"/>
      <point x="25" y="0" type="line"/>
      <point x="345" y="364" type="line"/>
      <point x="192" y="700" type="line"/>
      <point x="214" y="700" type="line"/>
    </contour>
  </outline>
</glyph>
<glyph name="chi" format="1">
  <advance width="453" height="962"/>
  <unicode hex="03C7"/>
  <outline>
    <contour>
      <point x="321" y="-108" type="line" smooth="yes"/>
      <point x="338" y="-169"/>
      <point x="361" y="-196"/>
      <point x="406" y="-199" type="curve"/>
      <point x="394" y="-212" type="line"/>
      <point x="341" y="-212"/>
      <point x="322" y="-177"/>
      <point x="303" y="-108" type="curve" smooth="yes"/>
      <point x="236" y="132" type="line"/>
      <point x="-4" y="-197" type="line"/>
      <point x="-19" y="-190" type="line"/>
      <point x="229" y="149" type="line"/>
      <point x="128" y="500" type="line"/>
      <point x="148" y="500" type="line"/>
      <point x="242" y="167" type="line"/>
      <point x="488" y="500" type="line"/>
      <point x="508" y="500" type="line"/>
      <point x="249" y="149" type="line"/>
    </contour>
  </outline>
</glyph>
<glyph name="uni040F" format="1">
  <advance width="518" height="962"/>
  <unicode hex="040F"/>
  <outline>
    <contour>
      <point x="623" y="700" type="line"/>
      <point x="474" y="0" type="line"/>
      <point x="268" y="0" type="line"/>
      <point x="246" y="-97" type="line"/>
      <point x="229" y="-97" type="line"/>
      <point x="249" y="0" type="line"/>
      <point x="43" y="0" type="line"/>
      <point x="192" y="700" type="line"/>
      <point x="211" y="700" type="line"/>
      <point x="66" y="18" type="line"/>
      <point x="459" y="18" type="line"/>
      <point x="604" y="700" type="line"/>
    </contour>
  </outline>
</glyph>
<glyph name="uni0414" format="1">
  <advance width="555" height="962"/>
  <unicode hex="0414"/>
  <outline>
    <contour>
      <point x="486" y="17" type="line"/>
      <point x="548" y="17" type="line"/>
      <point x="525" y="-88" type="line"/>
      <point x="509" y="-88" type="line"/>
      <point x="525" y="-1" type="line"/>
      <point x="30" y="-1" type="line"/>
      <point x="8" y="-88" type="line"/>
      <point x="-8" y="-88" type="line"/>
      <point x="15" y="17" type="line"/>
      <point x="67" y="17" type="line"/>
      <point x="362" y="590" type="line" smooth="yes"/>
      <point x="386" y="634"/>
      <point x="435" y="700"/>
      <point x="529" y="700" type="curve" smooth="yes"/>
      <point x="631" y="700" type="line"/>
    </contour>
    <contour>
      <point x="466" y="17" type="line"/>
      <point x="609" y="682" type="line"/>
      <point x="529" y="682" type="line" smooth="yes"/>
      <point x="435" y="682"/>
      <point x="396" y="617"/>
      <point x="376" y="578" type="curve" smooth="yes"/>
      <point x="87" y="17" type="line"/>
    </contour>
  </outline>
</glyph>
<glyph name="uni0423" format="1">
  <advance width="484" height="962"/>
  <unicode hex="0423"/>
  <outline>
    <contour>
      <point x="605" y="700" type="line"/>
      <point x="625" y="700" type="line"/>
      <point x="211" y="111" type="line" smooth="yes"/>
      <point x="165" y="46"/>
      <point x="135" y="17"/>
      <point x="69" y="-9" type="curve"/>
      <point x="64" y="4" type="line"/>
      <point x="137" y="34"/>
      <point x="165" y="76"/>
      <point x="194" y="116" type="curve" smooth="yes"/>
      <point x="291" y="255" type="line"/>
      <point x="156" y="700" type="line"/>
      <point x="175" y="700" type="line"/>
      <point x="305" y="274" type="line"/>
    </contour>
  </outline>
</glyph>
<glyph name="uni0429" format="1">
  <advance width="642" height="962"/>
  <unicode hex="0429"/>
  <outline>
    <component base="uni0428"/>
    <contour>
      <point x="596" y="18" type="line"/>
      <point x="623" y="18" type="line"/>
      <point x="601" y="-87" type="line"/>
      <point x="585" y="-87" type="line"/>
      <point x="600" y="0" type="line"/>
      <point x="592" y="0" type="line"/>
    </contour>
  </outline>
</glyph>
<glyph name="uni042A" format="1">
  <advance width="500" height="962"/>
  <unicode hex="042A"/>
  <outline>
    <component base="uni042C" xOffset="45"/>
    <contour>
      <point x="149" y="700" type="line"/>
      <point x="247" y="700" type="line"/>
      <point x="243" y="680" type="line"/>
      <point x="232" y="680" type="line"/>
      <point x="145" y="683" type="line"/>
    </contour>
  </outline>
</glyph>
<glyph name="uni042C" format="1">
  <advance width="455" height="962"/>
  <unicode hex="042C"/>
  <outline>
    <contour>
      <point x="350" y="411" type="line" smooth="yes"/>
      <point x="485" y="411"/>
      <point x="495" y="315"/>
      <point x="481" y="251" type="curve" smooth="yes"/>
      <point x="464" y="168" type="line" smooth="yes"/>
      <point x="438" y="49"/>
      <point x="366" y="-11"/>
      <point x="221" y="-11" type="curve" smooth="yes"/>
      <point x="183" y="-11"/>
      <point x="42" y="-1"/>
      <point x="42" y="-1" type="curve"/>
      <point x="191" y="700" type="line"/>
      <point x="209" y="700" type="line"/>
      <point x="147" y="411" type="line"/>
    </contour>
    <contour>
      <point x="444" y="162" type="curve" smooth="yes"/>
      <point x="463" y="249" type="line" smooth="yes"/>
      <point x="479" y="323"/>
      <point x="454" y="392"/>
      <point x="350" y="392" type="curve" smooth="yes"/>
      <point x="143" y="392" type="line"/>
      <point x="64" y="17" type="line"/>
      <point x="67" y="17"/>
      <point x="181" y="7"/>
      <point x="224" y="7" type="curve" smooth="yes"/>
      <point x="381" y="7"/>
      <point x="429" y="89"/>
    </contour>
  </outline>
</glyph>
<glyph name="uni042F" format="1">
  <advance width="509" height="962"/>
  <unicode hex="042F"/>
  <outline>
    <contour>
      <point x="375" y="700" type="curve" smooth="yes"/>
      <point x="625" y="700" type="line"/>
      <point x="476" y="0" type="line"/>
      <point x="457" y="0" type="line"/>
      <point x="517" y="281" type="line"/>
      <point x="293" y="281" type="line" smooth="yes"/>
      <point x="281" y="281"/>
      <point x="269" y="283"/>
      <point x="257" y="284" type="curve"/>
      <point x="61" y="0" type="line"/>
      <point x="41" y="0" type="line"/>
      <point x="239" y="286" type="line"/>
      <point x="148" y="305"/>
      <point x="121" y="376"/>
      <point x="146" y="494" type="curve" smooth="yes"/>
      <point x="173" y="623"/>
      <point x="248" y="700"/>
    </contour>
    <contour>
      <point x="298" y="300" type="curve" smooth="yes"/>
      <point x="521" y="300" type="line"/>
      <point x="602" y="680" type="line"/>
      <point x="370" y="680" type="line" smooth="yes"/>
      <point x="254" y="680"/>
      <point x="190" y="611"/>
      <point x="165" y="494" type="curve" smooth="yes"/>
      <point x="138" y="368"/>
      <point x="176" y="300"/>
    </contour>
  </outline>
</glyph>
<glyph name="uni0436" format="1">
  <advance width="533" height="962"/>
  <unicode hex="0436"/>
  <outline>
    <contour>
      <point x="622" y="500" type="line"/>
      <point x="416" y="250" type="line"/>
      <point x="513" y="0" type="line"/>
      <point x="493" y="0" type="line"/>
      <point x="400" y="241" type="line"/>
      <point x="327" y="241" type="line"/>
      <point x="276" y="0" type="line"/>
      <point x="257" y="0" type="line"/>
      <point x="308" y="241" type="line"/>
      <point x="243" y="241" type="line"/>
      <point x="39" y="0" type="line"/>
      <point x="17" y="0" type="line"/>
      <point x="230" y="251" type="line"/>
      <point x="130" y="500" type="line"/>
      <point x="153" y="500" type="line"/>
      <point x="245" y="261" type="line"/>
      <point x="312" y="261" type="line"/>
      <point x="363" y="500" type="line"/>
      <point x="382" y="500" type="line"/>
      <point x="331" y="261" type="line"/>
      <point x="404" y="261" type="line"/>
      <point x="600" y="500" type="line"/>
    </contour>
  </outline>
</glyph>
<glyph name="uni044F" format="1">
  <advance width="453" height="962"/>
  <unicode hex="044F"/>
  <outline>
    <contour>
      <point x="317" y="510" type="curve" smooth="yes"/>
      <point x="420" y="510"/>
      <point x="507" y="500"/>
      <point x="516" y="499" type="curve"/>
      <point x="410" y="0" type="line"/>
      <point x="392" y="0" type="line"/>
      <point x="434" y="197" type="line"/>
      <point x="247" y="197" type="line" smooth="yes"/>
      <point x="236" y="197"/>
      <point x="205" y="197"/>
      <point x="195" y="199" type="curve"/>
      <point x="57" y="0" type="line"/>
      <point x="37" y="0" type="line"/>
      <point x="178" y="203" type="line"/>
      <point x="113" y="220"/>
      <point x="85" y="275"/>
      <point x="101" y="347" type="curve" smooth="yes"/>
      <point x="117" y="424"/>
      <point x="180" y="510"/>
    </contour>
    <contour>
      <point x="235" y="215" type="curve" smooth="yes"/>
      <point x="438" y="215" type="line"/>
      <point x="494" y="480" type="line"/>
      <point x="468" y="482"/>
      <point x="401" y="490"/>
      <point x="310" y="490" type="curve" smooth="yes"/>
      <point x="211" y="490"/>
      <point x="138" y="432"/>
      <point x="120" y="350" type="curve" smooth="yes"/>
      <point x="104" y="273"/>
      <point x="139" y="215"/>
    </contour>
  </outline>
</glyph>
<glyph name="uni0459" format="1">
  <advance width="796" height="962"/>
  <unicode hex="0459"/>
  <outline>
    <contour>
      <point x="670" y="303" type="line" smooth="yes"/>
      <point x="770" y="303"/>
      <point x="815" y="240"/>
      <point x="797" y="153" type="curve" smooth="yes"/>
      <point x="780" y="76"/>
      <point x="717" y="-10"/>
      <point x="580" y="-10" type="curve" smooth="yes"/>
      <point x="500" y="-10"/>
      <point x="433" y="0"/>
      <point x="423" y="1" type="curve"/>
      <point x="526" y="483" type="line"/>
      <point x="416" y="483" type="line" smooth="yes"/>
      <point x="322" y="483"/>
      <point x="285" y="417"/>
      <point x="264" y="378" type="curve" smooth="yes"/>
      <point x="128" y="112" type="line" smooth="yes"/>
      <point x="94" y="47"/>
      <point x="71" y="18"/>
      <point x="10" y="-8" type="curve"/>
      <point x="2" y="5" type="line"/>
      <point x="70" y="34"/>
      <point x="90" y="77"/>
      <point x="111" y="117" type="curve" smooth="yes"/>
      <point x="251" y="390" type="line" smooth="yes"/>
      <point x="273" y="434"/>
      <point x="325" y="500"/>
      <point x="419" y="500" type="curve" smooth="yes"/>
      <point x="548" y="500" type="line"/>
      <point x="506" y="303" type="line"/>
    </contour>
    <contour>
      <point x="587" y="10" type="curve" smooth="yes"/>
      <point x="686" y="10"/>
      <point x="759" y="68"/>
      <point x="777" y="150" type="curve" smooth="yes"/>
      <point x="793" y="227"/>
      <point x="759" y="285"/>
      <point x="663" y="285" type="curve" smooth="yes"/>
      <point x="503" y="285" type="line"/>
      <point x="446" y="20" type="line"/>
      <point x="473" y="17"/>
      <point x="496" y="10"/>
    </contour>
  </outline>
</glyph>
<glyph name="uni046A" format="1">
  <advance width="602" height="962"/>
  <unicode hex="046A"/>
  <outline>
    <contour>
      <point x="454" y="376" type="line" smooth="yes"/>
      <point x="580" y="376"/>
      <point x="628" y="304"/>
      <point x="602" y="183" type="curve" smooth="yes"/>
      <point x="563" y="0" type="line"/>
      <point x="545" y="0" type="line"/>
      <point x="584" y="183" type="line" smooth="yes"/>
      <point x="610" y="304"/>
      <point x="553" y="359"/>
      <point x="450" y="359" type="curve" smooth="yes"/>
      <point x="382" y="359" type="line"/>
      <point x="306" y="0" type="line"/>
      <point x="288" y="0" type="line"/>
      <point x="364" y="359" type="line"/>
      <point x="299" y="359" type="line" smooth="yes"/>
      <point x="188" y="359"/>
      <point x="117" y="295"/>
      <point x="93" y="183" type="curve" smooth="yes"/>
      <point x="54" y="0" type="line"/>
      <point x="36" y="0" type="line"/>
      <point x="75" y="183" type="line" smooth="yes"/>
      <point x="101" y="304"/>
      <point x="176" y="376"/>
      <point x="303" y="376" type="curve" smooth="yes"/>
      <point x="367" y="376" type="line"/>
      <point x="211" y="700" type="line"/>
      <point x="683" y="700" type="line"/>
      <point x="388" y="376" type="line"/>
    </contour>
    <contour>
      <point x="381" y="393" type="line"/>
      <point x="645" y="683" type="line"/>
      <point x="242" y="683" type="line"/>
    </contour>
  </outline>
</glyph>
<glyph name="uni0490" format="1">
  <advance width="379" height="962"/>
  <unicode hex="0490"/>
  <outline>
    <component base="Gamma"/>
    <contour>
      <point x="523" y="771" type="line"/>
      <point x="539" y="771" type="line"/>
      <point x="522" y="690" type="line"/>
      <point x="503" y="690" type="line"/>
      <point x="505" y="700" type="line"/>
    </contour>
  </outline>
</glyph>
<glyph name="uni049D" format="1">
  <advance width="480" height="962"/>
  <unicode hex="049D"/>
  <outline>
    <contour>
      <point x="470" y="18" type="curve"/>
      <point x="466" y="-1" type="line"/>
      <point x="418" y="-1"/>
      <point x="387" y="51"/>
      <point x="368" y="86" type="curve" smooth="yes"/>
      <point x="266" y="282" type="line"/>
      <point x="205" y="282" type="line"/>
      <point x="190" y="211" type="line"/>
      <point x="171" y="211" type="line"/>
      <point x="186" y="282" type="line"/>
      <point x="116" y="282" type="line"/>
      <point x="56" y="0" type="line"/>
      <point x="38" y="0" type="line"/>
      <point x="147" y="511" type="line"/>
      <point x="164" y="507" type="line"/>
      <point x="120" y="302" type="line"/>
      <point x="190" y="302" type="line"/>
      <point x="205" y="373" type="line"/>
      <point x="224" y="373" type="line"/>
      <point x="209" y="302" type="line"/>
      <point x="270" y="302" type="line"/>
      <point x="494" y="500" type="line"/>
      <point x="520" y="500" type="line"/>
      <point x="285" y="292" type="line"/>
      <point x="375" y="113" type="line" smooth="yes"/>
      <point x="407" y="50"/>
      <point x="440" y="18"/>
    </contour>
  </outline>
</glyph>
<glyph name="uni04A4" format="1">
  <advance width="568" height="962"/>
  <unicode hex="04A4"/>
  <outline>
    <component base="H"/>
    <contour>
      <point x="612" y="700" type="line"/>
      <point x="708" y="700" type="line"/>
      <point x="704" y="683" type="line"/>
      <point x="617" y="680" type="line"/>
      <point x="608" y="680" type="line"/>
    </contour>
  </outline>
</glyph>
<glyph name="uni04AF" format="1">
  <advance width="424" height="962"/>
  <unicode hex="04AF"/>
  <outline>
    <contour>
      <point x="512" y="500" type="line"/>
      <point x="223" y="1" type="line"/>
      <point x="178" y="-211" type="line"/>
      <point x="161" y="-206" type="line"/>
      <point x="205" y="0" type="line"/>
      <point x="127" y="500" type="line"/>
      <point x="146" y="500" type="line"/>
      <point x="219" y="28" type="line"/>
      <point x="492" y="500" type="line"/>
    </contour>
  </outline>
</glyph>
<glyph name="uni04B3" format="1">
  <advance width="391" height="962"/>
  <unicode hex="04B3"/>
  <outline>
    <component base="x"/>
    <contour>
      <point x="346" y="18" type="line"/>
      <point x="376" y="18" type="line"/>
      <point x="354" y="-87" type="line"/>
      <point x="338" y="-87" type="line"/>
      <point x="353" y="0" type="line"/>
      <point x="342" y="0" type="line"/>
    </contour>
  </outline>
</glyph>
<glyph name="uni04B6" format="1">
  <advance width="515" height="962"/>
  <unicode hex="04B6"/>
  <outline>
    <component base="uni0427"/>
    <contour>
      <point x="461" y="18" type="line"/>
      <point x="492" y="18" type="line"/>
      <point x="470" y="-87" type="line"/>
      <point x="454" y="-87" type="line"/>
      <point x="469" y="0" type="line"/>
      <point x="457" y="0" type="line"/>
    </contour>
  </outline>
</glyph>
<glyph name="bullet" format="1">
  <advance width="270" height="962"/>
  <unicode hex="2022"/>
  <outline>
    <contour>
      <point x="294" y="409" type="curve" smooth="yes"/>
      <point x="309" y="388"/>
      <point x="314" y="364"/>
      <point x="308" y="336" type="curve" smooth="yes"/>
      <point x="303" y="310"/>
      <point x="286" y="284"/>
      <point x="263" y="264" type="curve" smooth="yes"/>
      <point x="238" y="243"/>
      <point x="211" y="233"/>
      <point x="183" y="233" type="curve" smooth="yes"/>
      <point x="154" y="233"/>
      <point x="132" y="243"/>
      <point x="117" y="264" type="curve" smooth="yes"/>
      <point x="101" y="284"/>
      <point x="96" y="308"/>
      <point x="102" y="336" type="curve" smooth="yes"/>
      <point x="108" y="365"/>
      <point x="123" y="389"/>
      <point x="147" y="409" type="curve" smooth="yes"/>
      <point x="172" y="430"/>
      <point x="198" y="440"/>
      <point x="227" y="440" type="curve" smooth="yes"/>
      <point x="255" y="440"/>
      <point x="278" y="430"/>
    </contour>
  </outline>
</glyph>
<glyph name="perthousand" format="1">
  <advance width="1056" height="962"/>
  <unicode hex="2030"/>
  <outline>
    <contour>
      <point x="66" y="0" type="line"/>
      <point x="754" y="700" type="line"/>
      <point x="780" y="700" type="line"/>
      <point x="93" y="0" type="line"/>
    </contour>
    <contour>
      <point x="326" y="714" type="curve" smooth="yes"/>
      <point x="404" y="714"/>
      <point x="457" y="650"/>
      <point x="440" y="568" type="curve" smooth="yes"/>
      <point x="423" y="488"/>
      <point x="342" y="422"/>
      <point x="263" y="422" type="curve" smooth="yes"/>
      <point x="182" y="422"/>
      <point x="131" y="488"/>
      <point x="148" y="568" type="curve" smooth="yes"/>
      <point x="165" y="650"/>
      <point x="244" y="714"/>
    </contour>
    <contour>
      <point x="321" y="694" type="curve" smooth="yes"/>
      <point x="251" y="694"/>
      <point x="183" y="638"/>
      <point x="168" y="568" type="curve" smooth="yes"/>
      <point x="154" y="500"/>
      <point x="198" y="442"/>
      <point x="267" y="442" type="curve" smooth="yes"/>
      <point x="335" y="442"/>
      <point x="404" y="500"/>
      <point x="419" y="568" type="curve" smooth="yes"/>
      <point x="433" y="638"/>
      <point x="389" y="694"/>
    </contour>
    <contour>
      <point x="592" y="277" type="curve" smooth="yes"/>
      <point x="674" y="277"/>
      <point x="724" y="212"/>
      <point x="707" y="132" type="curve" smooth="yes"/>
      <point x="690" y="51"/>
      <point x="612" y="-14"/>
      <point x="531" y="-14" type="curve" smooth="yes"/>
      <point x="451" y="-14"/>
      <point x="399" y="51"/>
      <point x="416" y="132" type="curve" smooth="yes"/>
      <point x="433" y="212"/>
      <point x="513" y="277"/>
    </contour>
    <contour>
      <point x="588" y="257" type="curve" smooth="yes"/>
      <point x="520" y="257"/>
      <point x="451" y="201"/>
      <point x="436" y="132" type="curve" smooth="yes"/>
      <point x="421" y="62"/>
      <point x="467" y="7"/>
      <point x="535" y="7" type="curve" smooth="yes"/>
      <point x="605" y="7"/>
      <point x="674" y="63"/>
      <point x="688" y="132" type="curve" smooth="yes"/>
      <point x="703" y="201"/>
      <point x="658" y="257"/>
    </contour>
    <contour>
      <point x="939" y="277" type="curve" smooth="yes"/>
      <point x="1020" y="277"/>
      <point x="1071" y="212"/>
      <point x="1054" y="132" type="curve" smooth="yes"/>
      <point x="1037" y="51"/>
      <point x="958" y="-14"/>
      <point x="878" y="-14" type="curve" smooth="yes"/>
      <point x="797" y="-14"/>
      <point x="746" y="51"/>
      <point x="763" y="132" type="curve" smooth="yes"/>
      <point x="780" y="212"/>
      <point x="860" y="277"/>
    </contour>
    <contour>
      <point x="935" y="257" type="curve" smooth="yes"/>
      <point x="866" y="257"/>
      <point x="797" y="201"/>
      <point x="782" y="132" type="curve" smooth="yes"/>
      <point x="767" y="62"/>
      <point x="813" y="7"/>
      <point x="882" y="7" type="curve" smooth="yes"/>
      <point x="952" y="7"/>
      <point x="1019" y="63"/>
      <point x="1033" y="132" type="curve" smooth="yes"/>
      <point x="1048" y="201"/>
      <point x="1005" y="257"/>
    </contour>
  </outline>
</glyph>
<glyph name="uni20B8" format="1">
  <advance width="409" height="962"/>
  <unicode hex="20B8"/>
  <outline>
    <contour>
      <point x="343" y="616" type="line"/>
      <point x="212" y="0" type="line"/>
      <point x="194" y="0" type="line"/>
      <point x="325" y="616" type="line"/>
      <point x="134" y="616" type="line"/>
      <point x="138" y="636" type="line"/>
      <point x="541" y="636" type="line"/>
      <point x="537" y="616" type="line"/>
    </contour>
    <contour>
      <point x="148" y="680" type="line"/>
      <point x="152" y="700" type="line"/>
      <point x="555" y="700" type="line"/>
      <point x="551" y="680" type="line"/>
    </contour>
  </outline>
</glyph>
<glyph name="fl" format="1">
  <advance width="348" height="962"/>
  <unicode hex="FB02"/>
  <outline>
    <contour>
      <point x="425" y="648" type="line"/>
      <point x="401" y="675"/>
      <point x="372" y="687"/>
      <point x="338" y="688" type="curve" smooth="yes"/>
      <point x="268" y="690"/>
      <point x="194" y="641"/>
      <point x="179" y="565" type="curve" smooth="yes"/>
      <point x="166" y="500" type="line"/>
      <point x="316" y="500" type="line"/>
      <point x="306" y="484" type="line"/>
      <point x="162" y="484" type="line"/>
      <point x="59" y="0" type="line"/>
      <point x="39" y="0" type="line"/>
      <point x="159" y="562" type="line" smooth="yes"/>
      <point x="182" y="673"/>
      <point x="281" y="706"/>
      <point x="340" y="706" type="curve" smooth="yes"/>
      <point x="383" y="706"/>
      <point x="415" y="689"/>
      <point x="445" y="658" type="curve"/>
      <point x="306" y="0" type="line"/>
      <point x="287" y="0" type="line"/>
    </contour>
  </outline>
</glyph>
<glyph name="cedillacomb" format="1">
  <advance width="267" height="962"/>
  <outline>
    <contour>
      <point x="150" y="0" type="line"/>
      <point x="114" y="-46" type="line"/>
      <point x="137" y="-46"/>
      <point x="143" y="-46"/>
      <point x="148" y="-46" type="curve" smooth="yes"/>
      <point x="200" y="-46"/>
      <point x="230" y="-86"/>
      <point x="220" y="-136" type="curve" smooth="yes"/>
      <point x="208" y="-191"/>
      <point x="163" y="-225"/>
      <point x="110" y="-227" type="curve" smooth="yes"/>
      <point x="65" y="-228"/>
      <point x="45" y="-222"/>
      <point x="12" y="-214" type="curve"/>
      <point x="21" y="-197" type="line"/>
      <point x="20" y="-197"/>
      <point x="63" y="-212"/>
      <point x="113" y="-208" type="curve" smooth="yes"/>
      <point x="131" y="-207"/>
      <point x="187" y="-200"/>
      <point x="201" y="-136" type="curve" smooth="yes"/>
      <point x="209" y="-96"/>
      <point x="186" y="-67"/>
      <point x="143" y="-67" type="curve" smooth="yes"/>
      <point x="127" y="-67"/>
      <point x="108" y="-67"/>
      <point x="86" y="-67" type="curve"/>
      <point x="90" y="-46" type="line"/>
      <point x="129" y="0" type="line"/>
    </contour>
  </outline>
</glyph>
<glyph name="commaturnedabove" format="1">
  <advance width="267" height="962"/>
  <outline>
    <contour>
      <point x="302" y="681" type="line"/>
      <point x="280" y="663"/>
      <point x="271" y="641"/>
      <point x="264" y="626" type="curve"/>
      <point x="271" y="624"/>
      <point x="274" y="618"/>
      <point x="272" y="610" type="curve" smooth="yes"/>
      <point x="270" y="601"/>
      <point x="263" y="594"/>
      <point x="253" y="594" type="curve" smooth="yes"/>
      <point x="244" y="594"/>
      <point x="237" y="601"/>
      <point x="239" y="610" type="curve" smooth="yes"/>
      <point x="250" y="663"/>
      <point x="295" y="687"/>
      <point x="294" y="687" type="curve"/>
    </contour>
  </outline>
</glyph>
<glyph name="descendercomb" format="1">
  <advance width="250" height="962"/>
  <outline>
    <contour>
      <point x="120" y="6" type="line"/>
      <point x="136" y="5" type="line"/>
      <point x="135" y="-2" type="line"/>
      <point x="181" y="-110" type="line" smooth="yes"/>
      <point x="210" y="-178"/>
      <point x="135" y="-246"/>
      <point x="69" y="-222" type="curve" smooth="yes"/>
      <point x="-10" y="-193" type="line"/>
      <point x="-2" y="-175" type="line"/>
      <point x="66" y="-200" type="line" smooth="yes"/>
      <point x="127" y="-223"/>
      <point x="183" y="-170"/>
      <point x="163" y="-119" type="curve" smooth="yes"/>
      <point x="118" y="-3" type="line"/>
    </contour>
  </outline>
</glyph>
<glyph name="ringcomb" format="1">
  <advance width="267" height="962"/>
  <outline>
    <contour>
      <point x="299" y="775" type="curve" smooth="yes"/>
      <point x="360" y="775"/>
      <point x="401" y="726"/>
      <point x="388" y="662" type="curve" smooth="yes"/>
      <point x="374" y="598"/>
      <point x="312" y="548"/>
      <point x="250" y="548" type="curve" smooth="yes"/>
      <point x="188" y="548"/>
      <point x="146" y="597"/>
      <point x="160" y="662" type="curve" smooth="yes"/>
      <point x="174" y="726"/>
      <point x="236" y="775"/>
    </contour>
    <contour>
      <point x="295" y="756" type="curve" smooth="yes"/>
      <point x="268" y="756"/>
      <point x="244" y="747"/>
      <point x="221" y="729" type="curve" smooth="yes"/>
      <point x="199" y="710"/>
      <point x="185" y="688"/>
      <point x="179" y="662" type="curve" smooth="yes"/>
      <point x="173" y="633"/>
      <point x="180" y="607"/>
      <point x="196" y="590" type="curve" smooth="yes"/>
      <point x="210" y="575"/>
      <point x="230" y="567"/>
      <point x="254" y="567" type="curve" smooth="yes"/>
      <point x="280" y="567"/>
      <point x="304" y="576"/>
      <point x="326" y="594" type="curve" smooth="yes"/>
      <point x="349" y="613"/>
      <point x="363" y="636"/>
      <point x="369" y="662" type="curve" smooth="yes"/>
      <point x="374" y="688"/>
      <point x="368" y="712"/>
      <point x="355" y="729" type="curve" smooth="yes"/>
      <point x="341" y="746"/>
      <point x="320" y="756"/>
    </contour>
  </outline>
</glyph>
<glyph name="sigma_tau" format="1">
  <advance width="741" height="962"/>
  <outline>
    <contour>
      <point x="677" y="470" type="line"/>
      <point x="725" y="471"/>
      <point x="775" y="474"/>
      <point x="822" y="480" type="curve"/>
      <point x="826" y="500" type="line"/>
      <point x="683" y="484"/>
      <point x="552" y="487"/>
      <point x="441" y="502" type="curve" smooth="yes"/>
      <point x="412" y="506"/>
      <point x="386" y="512"/>
      <point x="318" y="512" type="curve" smooth="yes"/>
      <point x="229" y="512"/>
      <point x="126" y="462"/>
      <point x="97" y="328" type="curve" smooth="yes"/>
      <point x="66" y="185" type="line" smooth="yes"/>
      <point x="43" y="77"/>
      <point x="84" y="-10"/>
      <point x="212" y="-10" type="curve" smooth="yes"/>
      <point x="334" y="-10"/>
      <point x="409" y="68"/>
      <point x="435" y="185" type="curve" smooth="yes"/>
      <point x="465" y="320" type="line" smooth="yes"/>
      <point x="483" y="402"/>
      <point x="472" y="451"/>
      <point x="428" y="485" type="curve"/>
      <point x="493" y="474"/>
      <point x="574" y="468"/>
      <point x="656" y="469" type="curve"/>
      <point x="585" y="133" type="line" smooth="yes"/>
      <point x="567" y="47"/>
      <point x="576" y="9"/>
      <point x="641" y="-13" type="curve"/>
      <point x="652" y="4" type="line"/>
      <point x="581" y="24"/>
      <point x="593" y="79"/>
      <point x="605" y="133" type="curve" smooth="yes"/>
    </contour>
    <contour>
      <point x="389" y="488" type="curve"/>
      <point x="400" y="480"/>
      <point x="475" y="459"/>
      <point x="445" y="320" type="curve" smooth="yes"/>
      <point x="416" y="185" type="line" smooth="yes"/>
      <point x="395" y="84"/>
      <point x="327" y="8"/>
      <point x="212" y="8" type="curve" smooth="yes"/>
      <point x="102" y="8"/>
      <point x="65" y="86"/>
      <point x="86" y="185" type="curve" smooth="yes"/>
      <point x="116" y="324" type="line" smooth="yes"/>
      <point x="141" y="441"/>
      <point x="224" y="492"/>
      <point x="313" y="495" type="curve" smooth="yes"/>
      <point x="340" y="496"/>
      <point x="368" y="493"/>
    </contour>
  </outline>
</glyph>
<glyph name="t_t" format="1">
  <advance width="399" height="962"/>
  <outline>
    <component base="t" xOffset="161.5"/>
    <contour>
      <point x="88" y="132" type="line" smooth="yes"/>
      <point x="73" y="59"/>
      <point x="92" y="27"/>
      <point x="153" y="4" type="curve"/>
      <point x="143" y="-13" type="line"/>
      <point x="74" y="9"/>
      <point x="52" y="54"/>
      <point x="68" y="132" type="curve" smooth="yes"/>
      <point x="189" y="700" type="line"/>
      <point x="209" y="700" type="line"/>
      <point x="167" y="500" type="line"/>
      <point x="315" y="500" type="line"/>
      <point x="310" y="482" type="line"/>
      <point x="163" y="482" type="line"/>
    </contour>
  </outline>
</glyph>
